{
  "accessors": [
    {
      "bufferView": 2,
      "componentType": 5126,
      "count": 998,
      "max": [
        12.765969276428223,
        24.5487060546875,
        13.094232559204102
      ],
      "min": [
        -12.76594352722168,
        -33.23978805541992,
        -13.094239234924316
      ],
      "type": "VEC3"
    },
    {
      "bufferView": 2,
      "byteOffset": 11976,
      "componentType": 5126,
      "count": 998,
      "max": [
        1.0,
        1.0,
        1.0
      ],
      "min": [
        -1.0,
        -1.0,
        -1.0
      ],
      "type": "VEC3"
    },
    {
      "bufferView": 3,
      "componentType": 5126,
      "count": 998,
      "max": [
        1.0,
        1.0,
        1.0,
        1.0
      ],
      "min": [
        -1.0,
        -1.0,
        -1.0,
        1.0
      ],
      "type": "VEC4"
    },
    {
      "bufferView": 1,
      "componentType": 5126,
      "count": 998,
      "max": [
        0.9969931840896606,
        0.9794375896453857
      ],
      "min": [
        0.0029764696955680847,
        0.0029802287463098764
      ],
      "type": "VEC2"
    },
    {
      "bufferView": 1,
      "byteOffset": 7984,
      "componentType": 5126,
      "count": 998,
      "max": [
        0.9969931840896606,
        0.9794375896453857
      ],
      "min": [
        0.0029764696955680847,
        0.0029802287463098764
      ],
      "type": "VEC2"
    },
    {
      "bufferView": 0,
      "componentType": 5125,
      "count": 4056,
      "type": "SCALAR"
    },
    {
      "bufferView": 2,
      "byteOffset": 23952,
      "componentType": 5126,
      "count": 1252,
      "max": [
        12.644377708435059,
        17.101335525512695,
        12.969167709350586
      ],
      "min": [
        -12.644553184509277,
        -36.296653747558594,
        -12.970076560974121
      ],
      "type": "VEC3"
    },
    {
      "bufferView": 2,
      "byteOffset": 38976,
      "componentType": 5126,
      "count": 1252,
      "max": [
        0.9998934864997864,
        1.0,
        1.0
      ],
      "min": [
        -0.9998936057090759,
        -1.0,
        -1.0
      ],
      "type": "VEC3"
    },
    {
      "bufferView": 3,
      "byteOffset": 15968,
      "componentType": 5126,
      "count": 1252,
      "max": [
        1.0,
        0.9994307160377502,
        0.9999827146530151,
        1.0
      ],
      "min": [
        -1.0,
        -0.9994304776191711,
        -0.99859219789505,
        1.0
      ],
      "type": "VEC4"
    },
    {
      "bufferView": 1,
      "byteOffset": 15968,
      "componentType": 5126,
      "count": 1252,
      "max": [
        0.9249455332756042,
        0.9755597114562988
      ],
      "min": [
        0.0384950190782547,
        0.0029868048150092363
      ],
      "type": "VEC2"
    },
    {
      "bufferView": 1,
      "byteOffset": 25984,
      "componentType": 5126,
      "count": 1252,
      "max": [
        0.9249455332756042,
        0.9755597114562988
      ],
      "min": [
        0.0384950190782547,
        0.0029868048150092363
      ],
      "type": "VEC2"
    },
    {
      "bufferView": 0,
      "byteOffset": 16224,
      "componentType": 5125,
      "count": 5124,
      "type": "SCALAR"
    },
    {
      "bufferView": 2,
      "byteOffset": 54000,
      "componentType": 5126,
      "count": 624,
      "max": [
        12.920904159545898,
        20.066579818725586,
        13.253180503845215
      ],
      "min": [
        -12.920915603637695,
        -21.649534225463867,
        -13.253186225891113
      ],
      "type": "VEC3"
    },
    {
      "bufferView": 2,
      "byteOffset": 61488,
      "componentType": 5126,
      "count": 624,
      "max": [
        0.97492915391922,
        1.0,
        1.0
      ],
      "min": [
        -0.97492915391922,
        -1.0,
        -1.0
      ],
      "type": "VEC3"
    },
    {
      "bufferView": 3,
      "byteOffset": 36000,
      "componentType": 5126,
      "count": 624,
      "max": [
        0.9999930262565613,
        1.0,
        0.9888402223587036,
        1.0
      ],
      "min": [
        -0.9998739957809448,
        -1.0,
        -0.9894621968269348,
        1.0
      ],
      "type": "VEC4"
    },
    {
      "bufferView": 1,
      "byteOffset": 36000,
      "componentType": 5126,
      "count": 624,
      "max": [
        0.9951267242431641,
        0.9970213174819946
      ],
      "min": [
        0.002994183450937271,
        0.0030534863471984863
      ],
      "type": "VEC2"
    },
    {
      "bufferView": 1,
      "byteOffset": 40992,
      "componentType": 5126,
      "count": 624,
      "max": [
        0.9951267242431641,
        0.9970213174819946
      ],
      "min": [
        0.002994183450937271,
        0.0030534863471984863
      ],
      "type": "VEC2"
    },
    {
      "bufferView": 0,
      "byteOffset": 36720,
      "componentType": 5125,
      "count": 2316,
      "type": "SCALAR"
    },
    {
      "bufferView": 2,
      "byteOffset": 68976,
      "componentType": 5126,
      "count": 812,
      "max": [
        12.723625183105469,
        20.648916244506836,
        12.460838317871094
      ],
      "min": [
        -12.723695755004883,
        -25.09883689880371,
        -13.64085865020752
      ],
      "type": "VEC3"
    },
    {
      "bufferView": 2,
      "byteOffset": 78720,
      "componentType": 5126,
      "count": 812,
      "max": [
        0.9986748695373535,
        0.9999904632568359,
        0.9984694123268127
      ],
      "min": [
        -0.9986751079559326,
        -1.0,
        -0.9987910985946655
      ],
      "type": "VEC3"
    },
    {
      "bufferView": 3,
      "byteOffset": 45984,
      "componentType": 5126,
      "count": 812,
      "max": [
        1.0,
        0.9988827109336853,
        1.0,
        1.0
      ],
      "min": [
        -1.0,
        -0.9873672723770142,
        -0.9967591762542725,
        1.0
      ],
      "type": "VEC4"
    },
    {
      "bufferView": 1,
      "byteOffset": 45984,
      "componentType": 5126,
      "count": 812,
      "max": [
        0.9910159707069397,
        0.9589160084724426
      ],
      "min": [
        0.002989651169627905,
        0.0029799193143844604
      ],
      "type": "VEC2"
    },
    {
      "bufferView": 1,
      "byteOffset": 52480,
      "componentType": 5126,
      "count": 812,
      "max": [
        0.9910159707069397,
        0.9589160084724426
      ],
      "min": [
        0.002989651169627905,
        0.0029799193143844604
      ],
      "type": "VEC2"
    },
    {
      "bufferView": 0,
      "byteOffset": 45984,
      "componentType": 5125,
      "count": 3384,
      "type": "SCALAR"
    },
    {
      "bufferView": 2,
      "byteOffset": 88464,
      "componentType": 5126,
      "count": 799,
      "max": [
        12.325474739074707,
        23.810169219970703,
        12.716706275939941
      ],
      "min": [
        -12.457937240600586,
        -24.64202308654785,
        -12.704019546508789
      ],
      "type": "VEC3"
    },
    {
      "bufferView": 2,
      "byteOffset": 98052,
      "componentType": 5126,
      "count": 799,
      "max": [
        1.0,
        1.0,
        1.0
      ],
      "min": [
        -1.0,
        -1.0,
        -1.0
      ],
      "type": "VEC3"
    },
    {
      "bufferView": 3,
      "byteOffset": 58976,
      "componentType": 5126,
      "count": 799,
      "max": [
        1.0,
        1.0,
        1.0,
        1.0
      ],
      "min": [
        -0.9999996423721313,
        -1.0,
        -0.9972268342971802,
        1.0
      ],
      "type": "VEC4"
    },
    {
      "bufferView": 1,
      "byteOffset": 58976,
      "componentType": 5126,
      "count": 799,
      "max": [
        0.9958130121231079,
        0.9848756194114685
      ],
      "min": [
        0.0029827842954546213,
        0.002978682518005371
      ],
      "type": "VEC2"
    },
    {
      "bufferView": 1,
      "byteOffset": 65368,
      "componentType": 5126,
      "count": 799,
      "max": [
        0.9958130121231079,
        0.9848756194114685
      ],
      "min": [
        0.0029827842954546213,
        0.002978682518005371
      ],
      "type": "VEC2"
    },
    {
      "bufferView": 0,
      "byteOffset": 59520,
      "componentType": 5125,
      "count": 3402,
      "type": "SCALAR"
    },
    {
      "bufferView": 2,
      "byteOffset": 107640,
      "componentType": 5126,
      "count": 601,
      "max": [
        9.676802635192871,
        17.266460418701172,
        9.434192657470703
      ],
      "min": [
        -9.676802635192871,
        -18.273574829101563,
        -9.434194564819336
      ],
      "type": "VEC3"
    },
    {
      "bufferView": 2,
      "byteOffset": 114852,
      "componentType": 5126,
      "count": 601,
      "max": [
        1.0,
        1.0,
        0.974928617477417
      ],
      "min": [
        -1.0,
        -1.0,
        -0.974928617477417
      ],
      "type": "VEC3"
    },
    {
      "bufferView": 3,
      "byteOffset": 71760,
      "componentType": 5126,
      "count": 601,
      "max": [
        0.9931485056877136,
        0.9695422053337097,
        0.9999411702156067,
        1.0
      ],
      "min": [
        -0.9990959763526917,
        -0.9975090026855469,
        -1.0,
        1.0
      ],
      "type": "VEC4"
    },
    {
      "bufferView": 1,
      "byteOffset": 71760,
      "componentType": 5126,
      "count": 601,
      "max": [
        0.8726935982704163,
        0.9384301900863647
      ],
      "min": [
        0.07177457958459854,
        0.34739482402801514
      ],
      "type": "VEC2"
    },
    {
      "bufferView": 1,
      "byteOffset": 76568,
      "componentType": 5126,
      "count": 601,
      "max": [
        0.8726935982704163,
        0.9384301900863647
      ],
      "min": [
        0.07177457958459854,
        0.34739482402801514
      ],
      "type": "VEC2"
    },
    {
      "bufferView": 0,
      "byteOffset": 73128,
      "componentType": 5125,
      "count": 2856,
      "type": "SCALAR"
    },
    {
      "bufferView": 2,
      "byteOffset": 122064,
      "componentType": 5126,
      "count": 624,
      "max": [
        12.920904159545898,
        20.066579818725586,
        13.253180503845215
      ],
      "min": [
        -12.920915603637695,
        -21.649534225463867,
        -13.253186225891113
      ],
      "type": "VEC3"
    },
    {
      "bufferView": 2,
      "byteOffset": 129552,
      "componentType": 5126,
      "count": 624,
      "max": [
        0.97492915391922,
        1.0,
        1.0
      ],
      "min": [
        -0.97492915391922,
        -1.0,
        -1.0
      ],
      "type": "VEC3"
    },
    {
      "bufferView": 3,
      "byteOffset": 81376,
      "componentType": 5126,
      "count": 624,
      "max": [
        0.9999930262565613,
        1.0,
        0.9888402223587036,
        1.0
      ],
      "min": [
        -0.9998739957809448,
        -1.0,
        -0.9894621968269348,
        1.0
      ],
      "type": "VEC4"
    },
    {
      "bufferView": 1,
      "byteOffset": 81376,
      "componentType": 5126,
      "count": 624,
      "max": [
        0.9951267242431641,
        0.9970213174819946
      ],
      "min": [
        0.002994183450937271,
        0.0030534863471984863
      ],
      "type": "VEC2"
    },
    {
      "bufferView": 1,
      "byteOffset": 86368,
      "componentType": 5126,
      "count": 624,
      "max": [
        0.9951267242431641,
        0.9970213174819946
      ],
      "min": [
        0.002994183450937271,
        0.0030534863471984863
      ],
      "type": "VEC2"
    },
    {
      "bufferView": 0,
      "byteOffset": 84552,
      "componentType": 5125,
      "count": 2316,
      "type": "SCALAR"
    },
    {
      "bufferView": 2,
      "byteOffset": 137040,
      "componentType": 5126,
      "count": 799,
      "max": [
        12.325474739074707,
        23.810169219970703,
        12.716706275939941
      ],
      "min": [
        -12.457937240600586,
        -24.64202308654785,
        -12.704019546508789
      ],
      "type": "VEC3"
    },
    {
      "bufferView": 2,
      "byteOffset": 146628,
      "componentType": 5126,
      "count": 799,
      "max": [
        1.0,
        1.0,
        1.0
      ],
      "min": [
        -1.0,
        -1.0,
        -1.0
      ],
      "type": "VEC3"
    },
    {
      "bufferView": 3,
      "byteOffset": 91360,
      "componentType": 5126,
      "count": 799,
      "max": [
        1.0,
        1.0,
        1.0,
        1.0
      ],
      "min": [
        -0.9999996423721313,
        -1.0,
        -0.9972268342971802,
        1.0
      ],
      "type": "VEC4"
    },
    {
      "bufferView": 1,
      "byteOffset": 91360,
      "componentType": 5126,
      "count": 799,
      "max": [
        0.9958130121231079,
        0.9848756194114685
      ],
      "min": [
        0.0029827842954546213,
        0.002978682518005371
      ],
      "type": "VEC2"
    },
    {
      "bufferView": 1,
      "byteOffset": 97752,
      "componentType": 5126,
      "count": 799,
      "max": [
        0.9958130121231079,
        0.9848756194114685
      ],
      "min": [
        0.0029827842954546213,
        0.002978682518005371
      ],
      "type": "VEC2"
    },
    {
      "bufferView": 0,
      "byteOffset": 93816,
      "componentType": 5125,
      "count": 3402,
      "type": "SCALAR"
    },
    {
      "bufferView": 2,
      "byteOffset": 156216,
      "componentType": 5126,
      "count": 812,
      "max": [
        12.723625183105469,
        20.648916244506836,
        12.460838317871094
      ],
      "min": [
        -12.723695755004883,
        -25.09883689880371,
        -13.64085865020752
      ],
      "type": "VEC3"
    },
    {
      "bufferView": 2,
      "byteOffset": 165960,
      "componentType": 5126,
      "count": 812,
      "max": [
        0.9986748695373535,
        0.9999904632568359,
        0.9984694123268127
      ],
      "min": [
        -0.9986751079559326,
        -1.0,
        -0.9987910985946655
      ],
      "type": "VEC3"
    },
    {
      "bufferView": 3,
      "byteOffset": 104144,
      "componentType": 5126,
      "count": 812,
      "max": [
        1.0,
        0.9988827109336853,
        1.0,
        1.0
      ],
      "min": [
        -1.0,
        -0.9873672723770142,
        -0.9967591762542725,
        1.0
      ],
      "type": "VEC4"
    },
    {
      "bufferView": 1,
      "byteOffset": 104144,
      "componentType": 5126,
      "count": 812,
      "max": [
        0.9910159707069397,
        0.9589160084724426
      ],
      "min": [
        0.002989651169627905,
        0.0029799193143844604
      ],
      "type": "VEC2"
    },
    {
      "bufferView": 1,
      "byteOffset": 110640,
      "componentType": 5126,
      "count": 812,
      "max": [
        0.9910159707069397,
        0.9589160084724426
      ],
      "min": [
        0.002989651169627905,
        0.0029799193143844604
      ],
      "type": "VEC2"
    },
    {
      "bufferView": 0,
      "byteOffset": 107424,
      "componentType": 5125,
      "count": 3384,
      "type": "SCALAR"
    },
    {
      "bufferView": 2,
      "byteOffset": 175704,
      "componentType": 5126,
      "count": 601,
      "max": [
        9.676802635192871,
        17.266460418701172,
        9.434192657470703
      ],
      "min": [
        -9.676802635192871,
        -18.273574829101563,
        -9.434194564819336
      ],
      "type": "VEC3"
    },
    {
      "bufferView": 2,
      "byteOffset": 182916,
      "componentType": 5126,
      "count": 601,
      "max": [
        1.0,
        1.0,
        0.974928617477417
      ],
      "min": [
        -1.0,
        -1.0,
        -0.974928617477417
      ],
      "type": "VEC3"
    },
    {
      "bufferView": 3,
      "byteOffset": 117136,
      "componentType": 5126,
      "count": 601,
      "max": [
        0.9931485056877136,
        0.9695422053337097,
        0.9999411702156067,
        1.0
      ],
      "min": [
        -0.9990959763526917,
        -0.9975090026855469,
        -1.0,
        1.0
      ],
      "type": "VEC4"
    },
    {
      "bufferView": 1,
      "byteOffset": 117136,
      "componentType": 5126,
      "count": 601,
      "max": [
        0.8726935982704163,
        0.9384301900863647
      ],
      "min": [
        0.07177457958459854,
        0.34739482402801514
      ],
      "type": "VEC2"
    },
    {
      "bufferView": 1,
      "byteOffset": 121944,
      "componentType": 5126,
      "count": 601,
      "max": [
        0.8726935982704163,
        0.9384301900863647
      ],
      "min": [
        0.07177457958459854,
        0.34739482402801514
      ],
      "type": "VEC2"
    },
    {
      "bufferView": 0,
      "byteOffset": 120960,
      "componentType": 5125,
      "count": 2856,
      "type": "SCALAR"
    },
    {
      "bufferView": 2,
      "byteOffset": 190128,
      "componentType": 5126,
      "count": 601,
      "max": [
        9.676802635192871,
        17.266460418701172,
        9.434192657470703
      ],
      "min": [
        -9.676802635192871,
        -18.273574829101563,
        -9.434194564819336
      ],
      "type": "VEC3"
    },
    {
      "bufferView": 2,
      "byteOffset": 197340,
      "componentType": 5126,
      "count": 601,
      "max": [
        1.0,
        1.0,
        0.974928617477417
      ],
      "min": [
        -1.0,
        -1.0,
        -0.974928617477417
      ],
      "type": "VEC3"
    },
    {
      "bufferView": 3,
      "byteOffset": 126752,
      "componentType": 5126,
      "count": 601,
      "max": [
        0.9931485056877136,
        0.9695422053337097,
        0.9999411702156067,
        1.0
      ],
      "min": [
        -0.9990959763526917,
        -0.9975090026855469,
        -1.0,
        1.0
      ],
      "type": "VEC4"
    },
    {
      "bufferView": 1,
      "byteOffset": 126752,
      "componentType": 5126,
      "count": 601,
      "max": [
        0.8726935982704163,
        0.9384301900863647
      ],
      "min": [
        0.07177457958459854,
        0.34739482402801514
      ],
      "type": "VEC2"
    },
    {
      "bufferView": 1,
      "byteOffset": 131560,
      "componentType": 5126,
      "count": 601,
      "max": [
        0.8726935982704163,
        0.9384301900863647
      ],
      "min": [
        0.07177457958459854,
        0.34739482402801514
      ],
      "type": "VEC2"
    },
    {
      "bufferView": 0,
      "byteOffset": 132384,
      "componentType": 5125,
      "count": 2856,
      "type": "SCALAR"
    },
    {
      "bufferView": 2,
      "byteOffset": 204552,
      "componentType": 5126,
      "count": 601,
      "max": [
        9.676802635192871,
        17.266460418701172,
        9.434192657470703
      ],
      "min": [
        -9.676802635192871,
        -18.273574829101563,
        -9.434194564819336
      ],
      "type": "VEC3"
    },
    {
      "bufferView": 2,
      "byteOffset": 211764,
      "componentType": 5126,
      "count": 601,
      "max": [
        1.0,
        1.0,
        0.974928617477417
      ],
      "min": [
        -1.0,
        -1.0,
        -0.974928617477417
      ],
      "type": "VEC3"
    },
    {
      "bufferView": 3,
      "byteOffset": 136368,
      "componentType": 5126,
      "count": 601,
      "max": [
        0.9931485056877136,
        0.9695422053337097,
        0.9999411702156067,
        1.0
      ],
      "min": [
        -0.9990959763526917,
        -0.9975090026855469,
        -1.0,
        1.0
      ],
      "type": "VEC4"
    },
    {
      "bufferView": 1,
      "byteOffset": 136368,
      "componentType": 5126,
      "count": 601,
      "max": [
        0.8726935982704163,
        0.9384301900863647
      ],
      "min": [
        0.07177457958459854,
        0.34739482402801514
      ],
      "type": "VEC2"
    },
    {
      "bufferView": 1,
      "byteOffset": 141176,
      "componentType": 5126,
      "count": 601,
      "max": [
        0.8726935982704163,
        0.9384301900863647
      ],
      "min": [
        0.07177457958459854,
        0.34739482402801514
      ],
      "type": "VEC2"
    },
    {
      "bufferView": 0,
      "byteOffset": 143808,
      "componentType": 5125,
      "count": 2856,
      "type": "SCALAR"
    },
    {
      "bufferView": 2,
      "byteOffset": 218976,
      "componentType": 5126,
      "count": 601,
      "max": [
        9.676802635192871,
        17.266460418701172,
        9.434192657470703
      ],
      "min": [
        -9.676802635192871,
        -18.273574829101563,
        -9.434194564819336
      ],
      "type": "VEC3"
    },
    {
      "bufferView": 2,
      "byteOffset": 226188,
      "componentType": 5126,
      "count": 601,
      "max": [
        1.0,
        1.0,
        0.974928617477417
      ],
      "min": [
        -1.0,
        -1.0,
        -0.974928617477417
      ],
      "type": "VEC3"
    },
    {
      "bufferView": 3,
      "byteOffset": 145984,
      "componentType": 5126,
      "count": 601,
      "max": [
        0.9931485056877136,
        0.9695422053337097,
        0.9999411702156067,
        1.0
      ],
      "min": [
        -0.9990959763526917,
        -0.9975090026855469,
        -1.0,
        1.0
      ],
      "type": "VEC4"
    },
    {
      "bufferView": 1,
      "byteOffset": 145984,
      "componentType": 5126,
      "count": 601,
      "max": [
        0.8726935982704163,
        0.9384301900863647
      ],
      "min": [
        0.07177457958459854,
        0.34739482402801514
      ],
      "type": "VEC2"
    },
    {
      "bufferView": 1,
      "byteOffset": 150792,
      "componentType": 5126,
      "count": 601,
      "max": [
        0.8726935982704163,
        0.9384301900863647
      ],
      "min": [
        0.07177457958459854,
        0.34739482402801514
      ],
      "type": "VEC2"
    },
    {
      "bufferView": 0,
      "byteOffset": 155232,
      "componentType": 5125,
      "count": 2856,
      "type": "SCALAR"
    },
    {
      "bufferView": 2,
      "byteOffset": 233400,
      "componentType": 5126,
      "count": 601,
      "max": [
        9.676802635192871,
        17.266460418701172,
        9.434192657470703
      ],
      "min": [
        -9.676802635192871,
        -18.273574829101563,
        -9.434194564819336
      ],
      "type": "VEC3"
    },
    {
      "bufferView": 2,
      "byteOffset": 240612,
      "componentType": 5126,
      "count": 601,
      "max": [
        1.0,
        1.0,
        0.974928617477417
      ],
      "min": [
        -1.0,
        -1.0,
        -0.974928617477417
      ],
      "type": "VEC3"
    },
    {
      "bufferView": 3,
      "byteOffset": 155600,
      "componentType": 5126,
      "count": 601,
      "max": [
        0.9931485056877136,
        0.9695422053337097,
        0.9999411702156067,
        1.0
      ],
      "min": [
        -0.9990959763526917,
        -0.9975090026855469,
        -1.0,
        1.0
      ],
      "type": "VEC4"
    },
    {
      "bufferView": 1,
      "byteOffset": 155600,
      "componentType": 5126,
      "count": 601,
      "max": [
        0.8726935982704163,
        0.9384301900863647
      ],
      "min": [
        0.07177457958459854,
        0.34739482402801514
      ],
      "type": "VEC2"
    },
    {
      "bufferView": 1,
      "byteOffset": 160408,
      "componentType": 5126,
      "count": 601,
      "max": [
        0.8726935982704163,
        0.9384301900863647
      ],
      "min": [
        0.07177457958459854,
        0.34739482402801514
      ],
      "type": "VEC2"
    },
    {
      "bufferView": 0,
      "byteOffset": 166656,
      "componentType": 5125,
      "count": 2856,
      "type": "SCALAR"
    },
    {
      "bufferView": 2,
      "byteOffset": 247824,
      "componentType": 5126,
      "count": 601,
      "max": [
        9.676802635192871,
        17.266460418701172,
        9.434192657470703
      ],
      "min": [
        -9.676802635192871,
        -18.273574829101563,
        -9.434194564819336
      ],
      "type": "VEC3"
    },
    {
      "bufferView": 2,
      "byteOffset": 255036,
      "componentType": 5126,
      "count": 601,
      "max": [
        1.0,
        1.0,
        0.974928617477417
      ],
      "min": [
        -1.0,
        -1.0,
        -0.974928617477417
      ],
      "type": "VEC3"
    },
    {
      "bufferView": 3,
      "byteOffset": 165216,
      "componentType": 5126,
      "count": 601,
      "max": [
        0.9931485056877136,
        0.9695422053337097,
        0.9999411702156067,
        1.0
      ],
      "min": [
        -0.9990959763526917,
        -0.9975090026855469,
        -1.0,
        1.0
      ],
      "type": "VEC4"
    },
    {
      "bufferView": 1,
      "byteOffset": 165216,
      "componentType": 5126,
      "count": 601,
      "max": [
        0.8726935982704163,
        0.9384301900863647
      ],
      "min": [
        0.07177457958459854,
        0.34739482402801514
      ],
      "type": "VEC2"
    },
    {
      "bufferView": 1,
      "byteOffset": 170024,
      "componentType": 5126,
      "count": 601,
      "max": [
        0.8726935982704163,
        0.9384301900863647
      ],
      "min": [
        0.07177457958459854,
        0.34739482402801514
      ],
      "type": "VEC2"
    },
    {
      "bufferView": 0,
      "byteOffset": 178080,
      "componentType": 5125,
      "count": 2856,
      "type": "SCALAR"
    },
    {
      "bufferView": 2,
      "byteOffset": 262248,
      "componentType": 5126,
      "count": 601,
      "max": [
        9.676802635192871,
        17.266460418701172,
        9.434192657470703
      ],
      "min": [
        -9.676802635192871,
        -18.273574829101563,
        -9.434194564819336
      ],
      "type": "VEC3"
    },
    {
      "bufferView": 2,
      "byteOffset": 269460,
      "componentType": 5126,
      "count": 601,
      "max": [
        1.0,
        1.0,
        0.974928617477417
      ],
      "min": [
        -1.0,
        -1.0,
        -0.974928617477417
      ],
      "type": "VEC3"
    },
    {
      "bufferView": 3,
      "byteOffset": 174832,
      "componentType": 5126,
      "count": 601,
      "max": [
        0.9931485056877136,
        0.9695422053337097,
        0.9999411702156067,
        1.0
      ],
      "min": [
        -0.9990959763526917,
        -0.9975090026855469,
        -1.0,
        1.0
      ],
      "type": "VEC4"
    },
    {
      "bufferView": 1,
      "byteOffset": 174832,
      "componentType": 5126,
      "count": 601,
      "max": [
        0.8726935982704163,
        0.9384301900863647
      ],
      "min": [
        0.07177457958459854,
        0.34739482402801514
      ],
      "type": "VEC2"
    },
    {
      "bufferView": 1,
      "byteOffset": 179640,
      "componentType": 5126,
      "count": 601,
      "max": [
        0.8726935982704163,
        0.9384301900863647
      ],
      "min": [
        0.07177457958459854,
        0.34739482402801514
      ],
      "type": "VEC2"
    },
    {
      "bufferView": 0,
      "byteOffset": 189504,
      "componentType": 5125,
      "count": 2856,
      "type": "SCALAR"
    },
    {
      "bufferView": 2,
      "byteOffset": 276672,
      "componentType": 5126,
      "count": 799,
      "max": [
        12.325474739074707,
        23.810169219970703,
        12.716706275939941
      ],
      "min": [
        -12.457937240600586,
        -24.64202308654785,
        -12.704019546508789
      ],
      "type": "VEC3"
    },
    {
      "bufferView": 2,
      "byteOffset": 286260,
      "componentType": 5126,
      "count": 799,
      "max": [
        1.0,
        1.0,
        1.0
      ],
      "min": [
        -1.0,
        -1.0,
        -1.0
      ],
      "type": "VEC3"
    },
    {
      "bufferView": 3,
      "byteOffset": 184448,
      "componentType": 5126,
      "count": 799,
      "max": [
        1.0,
        1.0,
        1.0,
        1.0
      ],
      "min": [
        -0.9999996423721313,
        -1.0,
        -0.9972268342971802,
        1.0
      ],
      "type": "VEC4"
    },
    {
      "bufferView": 1,
      "byteOffset": 184448,
      "componentType": 5126,
      "count": 799,
      "max": [
        0.9958130121231079,
        0.9848756194114685
      ],
      "min": [
        0.0029827842954546213,
        0.002978682518005371
      ],
      "type": "VEC2"
    },
    {
      "bufferView": 1,
      "byteOffset": 190840,
      "componentType": 5126,
      "count": 799,
      "max": [
        0.9958130121231079,
        0.9848756194114685
      ],
      "min": [
        0.0029827842954546213,
        0.002978682518005371
      ],
      "type": "VEC2"
    },
    {
      "bufferView": 0,
      "byteOffset": 200928,
      "componentType": 5125,
      "count": 3402,
      "type": "SCALAR"
    },
    {
      "bufferView": 2,
      "byteOffset": 295848,
      "componentType": 5126,
      "count": 799,
      "max": [
        12.325474739074707,
        23.810169219970703,
        12.716706275939941
      ],
      "min": [
        -12.457937240600586,
        -24.64202308654785,
        -12.704019546508789
      ],
      "type": "VEC3"
    },
    {
      "bufferView": 2,
      "byteOffset": 305436,
      "componentType": 5126,
      "count": 799,
      "max": [
        1.0,
        1.0,
        1.0
      ],
      "min": [
        -1.0,
        -1.0,
        -1.0
      ],
      "type": "VEC3"
    },
    {
      "bufferView": 3,
      "byteOffset": 197232,
      "componentType": 5126,
      "count": 799,
      "max": [
        1.0,
        1.0,
        1.0,
        1.0
      ],
      "min": [
        -0.9999996423721313,
        -1.0,
        -0.9972268342971802,
        1.0
      ],
      "type": "VEC4"
    },
    {
      "bufferView": 1,
      "byteOffset": 197232,
      "componentType": 5126,
      "count": 799,
      "max": [
        0.9958130121231079,
        0.9848756194114685
      ],
      "min": [
        0.0029827842954546213,
        0.002978682518005371
      ],
      "type": "VEC2"
    },
    {
      "bufferView": 1,
      "byteOffset": 203624,
      "componentType": 5126,
      "count": 799,
      "max": [
        0.9958130121231079,
        0.9848756194114685
      ],
      "min": [
        0.0029827842954546213,
        0.002978682518005371
      ],
      "type": "VEC2"
    },
    {
      "bufferView": 0,
      "byteOffset": 214536,
      "componentType": 5125,
      "count": 3402,
      "type": "SCALAR"
    },
    {
      "bufferView": 2,
      "byteOffset": 315024,
      "componentType": 5126,
      "count": 998,
      "max": [
        12.765969276428223,
        24.5487060546875,
        13.094232559204102
      ],
      "min": [
        -12.76594352722168,
        -33.23978805541992,
        -13.094239234924316
      ],
      "type": "VEC3"
    },
    {
      "bufferView": 2,
      "byteOffset": 327000,
      "componentType": 5126,
      "count": 998,
      "max": [
        1.0,
        1.0,
        1.0
      ],
      "min": [
        -1.0,
        -1.0,
        -1.0
      ],
      "type": "VEC3"
    },
    {
      "bufferView": 3,
      "byteOffset": 210016,
      "componentType": 5126,
      "count": 998,
      "max": [
        1.0,
        1.0,
        1.0,
        1.0
      ],
      "min": [
        -1.0,
        -1.0,
        -1.0,
        1.0
      ],
      "type": "VEC4"
    },
    {
      "bufferView": 1,
      "byteOffset": 210016,
      "componentType": 5126,
      "count": 998,
      "max": [
        0.9969931840896606,
        0.9794375896453857
      ],
      "min": [
        0.0029764696955680847,
        0.0029802287463098764
      ],
      "type": "VEC2"
    },
    {
      "bufferView": 1,
      "byteOffset": 218000,
      "componentType": 5126,
      "count": 998,
      "max": [
        0.9969931840896606,
        0.9794375896453857
      ],
      "min": [
        0.0029764696955680847,
        0.0029802287463098764
      ],
      "type": "VEC2"
    },
    {
      "bufferView": 0,
      "byteOffset": 228144,
      "componentType": 5125,
      "count": 4056,
      "type": "SCALAR"
    },
    {
      "bufferView": 2,
      "byteOffset": 338976,
      "componentType": 5126,
      "count": 812,
      "max": [
        12.723625183105469,
        20.648916244506836,
        12.460838317871094
      ],
      "min": [
        -12.723695755004883,
        -25.09883689880371,
        -13.64085865020752
      ],
      "type": "VEC3"
    },
    {
      "bufferView": 2,
      "byteOffset": 348720,
      "componentType": 5126,
      "count": 812,
      "max": [
        0.9986748695373535,
        0.9999904632568359,
        0.9984694123268127
      ],
      "min": [
        -0.9986751079559326,
        -1.0,
        -0.9987910985946655
      ],
      "type": "VEC3"
    },
    {
      "bufferView": 3,
      "byteOffset": 225984,
      "componentType": 5126,
      "count": 812,
      "max": [
        1.0,
        0.9988827109336853,
        1.0,
        1.0
      ],
      "min": [
        -1.0,
        -0.9873672723770142,
        -0.9967591762542725,
        1.0
      ],
      "type": "VEC4"
    },
    {
      "bufferView": 1,
      "byteOffset": 225984,
      "componentType": 5126,
      "count": 812,
      "max": [
        0.9910159707069397,
        0.9589160084724426
      ],
      "min": [
        0.002989651169627905,
        0.0029799193143844604
      ],
      "type": "VEC2"
    },
    {
      "bufferView": 1,
      "byteOffset": 232480,
      "componentType": 5126,
      "count": 812,
      "max": [
        0.9910159707069397,
        0.9589160084724426
      ],
      "min": [
        0.002989651169627905,
        0.0029799193143844604
      ],
      "type": "VEC2"
    },
    {
      "bufferView": 0,
      "byteOffset": 244368,
      "componentType": 5125,
      "count": 3384,
      "type": "SCALAR"
    },
    {
      "bufferView": 2,
      "byteOffset": 358464,
      "componentType": 5126,
      "count": 812,
      "max": [
        12.723625183105469,
        20.648916244506836,
        12.460838317871094
      ],
      "min": [
        -12.723695755004883,
        -25.09883689880371,
        -13.64085865020752
      ],
      "type": "VEC3"
    },
    {
      "bufferView": 2,
      "byteOffset": 368208,
      "componentType": 5126,
      "count": 812,
      "max": [
        0.9986748695373535,
        0.9999904632568359,
        0.9984694123268127
      ],
      "min": [
        -0.9986751079559326,
        -1.0,
        -0.9987910985946655
      ],
      "type": "VEC3"
    },
    {
      "bufferView": 3,
      "byteOffset": 238976,
      "componentType": 5126,
      "count": 812,
      "max": [
        1.0,
        0.9988827109336853,
        1.0,
        1.0
      ],
      "min": [
        -1.0,
        -0.9873672723770142,
        -0.9967591762542725,
        1.0
      ],
      "type": "VEC4"
    },
    {
      "bufferView": 1,
      "byteOffset": 238976,
      "componentType": 5126,
      "count": 812,
      "max": [
        0.9910159707069397,
        0.9589160084724426
      ],
      "min": [
        0.002989651169627905,
        0.0029799193143844604
      ],
      "type": "VEC2"
    },
    {
      "bufferView": 1,
      "byteOffset": 245472,
      "componentType": 5126,
      "count": 812,
      "max": [
        0.9910159707069397,
        0.9589160084724426
      ],
      "min": [
        0.002989651169627905,
        0.0029799193143844604
      ],
      "type": "VEC2"
    },
    {
      "bufferView": 0,
      "byteOffset": 257904,
      "componentType": 5125,
      "count": 3384,
      "type": "SCALAR"
    },
    {
      "bufferView": 2,
      "byteOffset": 377952,
      "componentType": 5126,
      "count": 601,
      "max": [
        9.676802635192871,
        17.266460418701172,
        9.434192657470703
      ],
      "min": [
        -9.676802635192871,
        -18.273574829101563,
        -9.434194564819336
      ],
      "type": "VEC3"
    },
    {
      "bufferView": 2,
      "byteOffset": 385164,
      "componentType": 5126,
      "count": 601,
      "max": [
        1.0,
        1.0,
        0.974928617477417
      ],
      "min": [
        -1.0,
        -1.0,
        -0.974928617477417
      ],
      "type": "VEC3"
    },
    {
      "bufferView": 3,
      "byteOffset": 251968,
      "componentType": 5126,
      "count": 601,
      "max": [
        0.9931485056877136,
        0.9695422053337097,
        0.9999411702156067,
        1.0
      ],
      "min": [
        -0.9990959763526917,
        -0.9975090026855469,
        -1.0,
        1.0
      ],
      "type": "VEC4"
    },
    {
      "bufferView": 1,
      "byteOffset": 251968,
      "componentType": 5126,
      "count": 601,
      "max": [
        0.8726935982704163,
        0.9384301900863647
      ],
      "min": [
        0.07177457958459854,
        0.34739482402801514
      ],
      "type": "VEC2"
    },
    {
      "bufferView": 1,
      "byteOffset": 256776,
      "componentType": 5126,
      "count": 601,
      "max": [
        0.8726935982704163,
        0.9384301900863647
      ],
      "min": [
        0.07177457958459854,
        0.34739482402801514
      ],
      "type": "VEC2"
    },
    {
      "bufferView": 0,
      "byteOffset": 271440,
      "componentType": 5125,
      "count": 2856,
      "type": "SCALAR"
    },
    {
      "bufferView": 2,
      "byteOffset": 392376,
      "componentType": 5126,
      "count": 601,
      "max": [
        9.676802635192871,
        17.266460418701172,
        9.434192657470703
      ],
      "min": [
        -9.676802635192871,
        -18.273574829101563,
        -9.434194564819336
      ],
      "type": "VEC3"
    },
    {
      "bufferView": 2,
      "byteOffset": 399588,
      "componentType": 5126,
      "count": 601,
      "max": [
        1.0,
        1.0,
        0.974928617477417
      ],
      "min": [
        -1.0,
        -1.0,
        -0.974928617477417
      ],
      "type": "VEC3"
    },
    {
      "bufferView": 3,
      "byteOffset": 261584,
      "componentType": 5126,
      "count": 601,
      "max": [
        0.9931485056877136,
        0.9695422053337097,
        0.9999411702156067,
        1.0
      ],
      "min": [
        -0.9990959763526917,
        -0.9975090026855469,
        -1.0,
        1.0
      ],
      "type": "VEC4"
    },
    {
      "bufferView": 1,
      "byteOffset": 261584,
      "componentType": 5126,
      "count": 601,
      "max": [
        0.8726935982704163,
        0.9384301900863647
      ],
      "min": [
        0.07177457958459854,
        0.34739482402801514
      ],
      "type": "VEC2"
    },
    {
      "bufferView": 1,
      "byteOffset": 266392,
      "componentType": 5126,
      "count": 601,
      "max": [
        0.8726935982704163,
        0.9384301900863647
      ],
      "min": [
        0.07177457958459854,
        0.34739482402801514
      ],
      "type": "VEC2"
    },
    {
      "bufferView": 0,
      "byteOffset": 282864,
      "componentType": 5125,
      "count": 2856,
      "type": "SCALAR"
    },
    {
      "bufferView": 2,
      "byteOffset": 406800,
      "componentType": 5126,
      "count": 601,
      "max": [
        9.676802635192871,
        17.266460418701172,
        9.434192657470703
      ],
      "min": [
        -9.676802635192871,
        -18.273574829101563,
        -9.434194564819336
      ],
      "type": "VEC3"
    },
    {
      "bufferView": 2,
      "byteOffset": 414012,
      "componentType": 5126,
      "count": 601,
      "max": [
        1.0,
        1.0,
        0.974928617477417
      ],
      "min": [
        -1.0,
        -1.0,
        -0.974928617477417
      ],
      "type": "VEC3"
    },
    {
      "bufferView": 3,
      "byteOffset": 271200,
      "componentType": 5126,
      "count": 601,
      "max": [
        0.9931485056877136,
        0.9695422053337097,
        0.9999411702156067,
        1.0
      ],
      "min": [
        -0.9990959763526917,
        -0.9975090026855469,
        -1.0,
        1.0
      ],
      "type": "VEC4"
    },
    {
      "bufferView": 1,
      "byteOffset": 271200,
      "componentType": 5126,
      "count": 601,
      "max": [
        0.8726935982704163,
        0.9384301900863647
      ],
      "min": [
        0.07177457958459854,
        0.34739482402801514
      ],
      "type": "VEC2"
    },
    {
      "bufferView": 1,
      "byteOffset": 276008,
      "componentType": 5126,
      "count": 601,
      "max": [
        0.8726935982704163,
        0.9384301900863647
      ],
      "min": [
        0.07177457958459854,
        0.34739482402801514
      ],
      "type": "VEC2"
    },
    {
      "bufferView": 0,
      "byteOffset": 294288,
      "componentType": 5125,
      "count": 2856,
      "type": "SCALAR"
    },
    {
      "bufferView": 2,
      "byteOffset": 421224,
      "componentType": 5126,
      "count": 601,
      "max": [
        9.676802635192871,
        17.266460418701172,
        9.434192657470703
      ],
      "min": [
        -9.676802635192871,
        -18.273574829101563,
        -9.434194564819336
      ],
      "type": "VEC3"
    },
    {
      "bufferView": 2,
      "byteOffset": 428436,
      "componentType": 5126,
      "count": 601,
      "max": [
        1.0,
        1.0,
        0.974928617477417
      ],
      "min": [
        -1.0,
        -1.0,
        -0.974928617477417
      ],
      "type": "VEC3"
    },
    {
      "bufferView": 3,
      "byteOffset": 280816,
      "componentType": 5126,
      "count": 601,
      "max": [
        0.9931485056877136,
        0.9695422053337097,
        0.9999411702156067,
        1.0
      ],
      "min": [
        -0.9990959763526917,
        -0.9975090026855469,
        -1.0,
        1.0
      ],
      "type": "VEC4"
    },
    {
      "bufferView": 1,
      "byteOffset": 280816,
      "componentType": 5126,
      "count": 601,
      "max": [
        0.8726935982704163,
        0.9384301900863647
      ],
      "min": [
        0.07177457958459854,
        0.34739482402801514
      ],
      "type": "VEC2"
    },
    {
      "bufferView": 1,
      "byteOffset": 285624,
      "componentType": 5126,
      "count": 601,
      "max": [
        0.8726935982704163,
        0.9384301900863647
      ],
      "min": [
        0.07177457958459854,
        0.34739482402801514
      ],
      "type": "VEC2"
    },
    {
      "bufferView": 0,
      "byteOffset": 305712,
      "componentType": 5125,
      "count": 2856,
      "type": "SCALAR"
    },
    {
      "bufferView": 2,
      "byteOffset": 435648,
      "componentType": 5126,
      "count": 601,
      "max": [
        9.676802635192871,
        17.266460418701172,
        9.434192657470703
      ],
      "min": [
        -9.676802635192871,
        -18.273574829101563,
        -9.434194564819336
      ],
      "type": "VEC3"
    },
    {
      "bufferView": 2,
      "byteOffset": 442860,
      "componentType": 5126,
      "count": 601,
      "max": [
        1.0,
        1.0,
        0.974928617477417
      ],
      "min": [
        -1.0,
        -1.0,
        -0.974928617477417
      ],
      "type": "VEC3"
    },
    {
      "bufferView": 3,
      "byteOffset": 290432,
      "componentType": 5126,
      "count": 601,
      "max": [
        0.9931485056877136,
        0.9695422053337097,
        0.9999411702156067,
        1.0
      ],
      "min": [
        -0.9990959763526917,
        -0.9975090026855469,
        -1.0,
        1.0
      ],
      "type": "VEC4"
    },
    {
      "bufferView": 1,
      "byteOffset": 290432,
      "componentType": 5126,
      "count": 601,
      "max": [
        0.8726935982704163,
        0.9384301900863647
      ],
      "min": [
        0.07177457958459854,
        0.34739482402801514
      ],
      "type": "VEC2"
    },
    {
      "bufferView": 1,
      "byteOffset": 295240,
      "componentType": 5126,
      "count": 601,
      "max": [
        0.8726935982704163,
        0.9384301900863647
      ],
      "min": [
        0.07177457958459854,
        0.34739482402801514
      ],
      "type": "VEC2"
    },
    {
      "bufferView": 0,
      "byteOffset": 317136,
      "componentType": 5125,
      "count": 2856,
      "type": "SCALAR"
    },
    {
      "bufferView": 2,
      "byteOffset": 450072,
      "componentType": 5126,
      "count": 601,
      "max": [
        9.676802635192871,
        17.266460418701172,
        9.434192657470703
      ],
      "min": [
        -9.676802635192871,
        -18.273574829101563,
        -9.434194564819336
      ],
      "type": "VEC3"
    },
    {
      "bufferView": 2,
      "byteOffset": 457284,
      "componentType": 5126,
      "count": 601,
      "max": [
        1.0,
        1.0,
        0.974928617477417
      ],
      "min": [
        -1.0,
        -1.0,
        -0.974928617477417
      ],
      "type": "VEC3"
    },
    {
      "bufferView": 3,
      "byteOffset": 300048,
      "componentType": 5126,
      "count": 601,
      "max": [
        0.9931485056877136,
        0.9695422053337097,
        0.9999411702156067,
        1.0
      ],
      "min": [
        -0.9990959763526917,
        -0.9975090026855469,
        -1.0,
        1.0
      ],
      "type": "VEC4"
    },
    {
      "bufferView": 1,
      "byteOffset": 300048,
      "componentType": 5126,
      "count": 601,
      "max": [
        0.8726935982704163,
        0.9384301900863647
      ],
      "min": [
        0.07177457958459854,
        0.34739482402801514
      ],
      "type": "VEC2"
    },
    {
      "bufferView": 1,
      "byteOffset": 304856,
      "componentType": 5126,
      "count": 601,
      "max": [
        0.8726935982704163,
        0.9384301900863647
      ],
      "min": [
        0.07177457958459854,
        0.34739482402801514
      ],
      "type": "VEC2"
    },
    {
      "bufferView": 0,
      "byteOffset": 328560,
      "componentType": 5125,
      "count": 2856,
      "type": "SCALAR"
    },
    {
      "bufferView": 2,
      "byteOffset": 464496,
      "componentType": 5126,
      "count": 601,
      "max": [
        9.676802635192871,
        17.266460418701172,
        9.434192657470703
      ],
      "min": [
        -9.676802635192871,
        -18.273574829101563,
        -9.434194564819336
      ],
      "type": "VEC3"
    },
    {
      "bufferView": 2,
      "byteOffset": 471708,
      "componentType": 5126,
      "count": 601,
      "max": [
        1.0,
        1.0,
        0.974928617477417
      ],
      "min": [
        -1.0,
        -1.0,
        -0.974928617477417
      ],
      "type": "VEC3"
    },
    {
      "bufferView": 3,
      "byteOffset": 309664,
      "componentType": 5126,
      "count": 601,
      "max": [
        0.9931485056877136,
        0.9695422053337097,
        0.9999411702156067,
        1.0
      ],
      "min": [
        -0.9990959763526917,
        -0.9975090026855469,
        -1.0,
        1.0
      ],
      "type": "VEC4"
    },
    {
      "bufferView": 1,
      "byteOffset": 309664,
      "componentType": 5126,
      "count": 601,
      "max": [
        0.8726935982704163,
        0.9384301900863647
      ],
      "min": [
        0.07177457958459854,
        0.34739482402801514
      ],
      "type": "VEC2"
    },
    {
      "bufferView": 1,
      "byteOffset": 314472,
      "componentType": 5126,
      "count": 601,
      "max": [
        0.8726935982704163,
        0.9384301900863647
      ],
      "min": [
        0.07177457958459854,
        0.34739482402801514
      ],
      "type": "VEC2"
    },
    {
      "bufferView": 0,
      "byteOffset": 339984,
      "componentType": 5125,
      "count": 2856,
      "type": "SCALAR"
    },
    {
      "bufferView": 2,
      "byteOffset": 478920,
      "componentType": 5126,
      "count": 601,
      "max": [
        9.676802635192871,
        17.266460418701172,
        9.434192657470703
      ],
      "min": [
        -9.676802635192871,
        -18.273574829101563,
        -9.434194564819336
      ],
      "type": "VEC3"
    },
    {
      "bufferView": 2,
      "byteOffset": 486132,
      "componentType": 5126,
      "count": 601,
      "max": [
        1.0,
        1.0,
        0.974928617477417
      ],
      "min": [
        -1.0,
        -1.0,
        -0.974928617477417
      ],
      "type": "VEC3"
    },
    {
      "bufferView": 3,
      "byteOffset": 319280,
      "componentType": 5126,
      "count": 601,
      "max": [
        0.9931485056877136,
        0.9695422053337097,
        0.9999411702156067,
        1.0
      ],
      "min": [
        -0.9990959763526917,
        -0.9975090026855469,
        -1.0,
        1.0
      ],
      "type": "VEC4"
    },
    {
      "bufferView": 1,
      "byteOffset": 319280,
      "componentType": 5126,
      "count": 601,
      "max": [
        0.8726935982704163,
        0.9384301900863647
      ],
      "min": [
        0.07177457958459854,
        0.34739482402801514
      ],
      "type": "VEC2"
    },
    {
      "bufferView": 1,
      "byteOffset": 324088,
      "componentType": 5126,
      "count": 601,
      "max": [
        0.8726935982704163,
        0.9384301900863647
      ],
      "min": [
        0.07177457958459854,
        0.34739482402801514
      ],
      "type": "VEC2"
    },
    {
      "bufferView": 0,
      "byteOffset": 351408,
      "componentType": 5125,
      "count": 2856,
      "type": "SCALAR"
    },
    {
      "bufferView": 2,
      "byteOffset": 493344,
      "componentType": 5126,
      "count": 1252,
      "max": [
        12.644377708435059,
        17.101335525512695,
        12.969167709350586
      ],
      "min": [
        -12.644553184509277,
        -36.296653747558594,
        -12.970076560974121
      ],
      "type": "VEC3"
    },
    {
      "bufferView": 2,
      "byteOffset": 508368,
      "componentType": 5126,
      "count": 1252,
      "max": [
        0.9998934864997864,
        1.0,
        1.0
      ],
      "min": [
        -0.9998936057090759,
        -1.0,
        -1.0
      ],
      "type": "VEC3"
    },
    {
      "bufferView": 3,
      "byteOffset": 328896,
      "componentType": 5126,
      "count": 1252,
      "max": [
        1.0,
        0.9994307160377502,
        0.9999827146530151,
        1.0
      ],
      "min": [
        -1.0,
        -0.9994304776191711,
        -0.99859219789505,
        1.0
      ],
      "type": "VEC4"
    },
    {
      "bufferView": 1,
      "byteOffset": 328896,
      "componentType": 5126,
      "count": 1252,
      "max": [
        0.9249455332756042,
        0.9755597114562988
      ],
      "min": [
        0.0384950190782547,
        0.0029868048150092363
      ],
      "type": "VEC2"
    },
    {
      "bufferView": 1,
      "byteOffset": 338912,
      "componentType": 5126,
      "count": 1252,
      "max": [
        0.9249455332756042,
        0.9755597114562988
      ],
      "min": [
        0.0384950190782547,
        0.0029868048150092363
      ],
      "type": "VEC2"
    },
    {
      "bufferView": 0,
      "byteOffset": 362832,
      "componentType": 5125,
      "count": 5124,
      "type": "SCALAR"
    },
    {
      "bufferView": 2,
      "byteOffset": 523392,
      "componentType": 5126,
      "count": 624,
      "max": [
        12.920904159545898,
        20.066579818725586,
        13.253180503845215
      ],
      "min": [
        -12.920915603637695,
        -21.649534225463867,
        -13.253186225891113
      ],
      "type": "VEC3"
    },
    {
      "bufferView": 2,
      "byteOffset": 530880,
      "componentType": 5126,
      "count": 624,
      "max": [
        0.97492915391922,
        1.0,
        1.0
      ],
      "min": [
        -0.97492915391922,
        -1.0,
        -1.0
      ],
      "type": "VEC3"
    },
    {
      "bufferView": 3,
      "byteOffset": 348928,
      "componentType": 5126,
      "count": 624,
      "max": [
        0.9999930262565613,
        1.0,
        0.9888402223587036,
        1.0
      ],
      "min": [
        -0.9998739957809448,
        -1.0,
        -0.9894621968269348,
        1.0
      ],
      "type": "VEC4"
    },
    {
      "bufferView": 1,
      "byteOffset": 348928,
      "componentType": 5126,
      "count": 624,
      "max": [
        0.9951267242431641,
        0.9970213174819946
      ],
      "min": [
        0.002994183450937271,
        0.0030534863471984863
      ],
      "type": "VEC2"
    },
    {
      "bufferView": 1,
      "byteOffset": 353920,
      "componentType": 5126,
      "count": 624,
      "max": [
        0.9951267242431641,
        0.9970213174819946
      ],
      "min": [
        0.002994183450937271,
        0.0030534863471984863
      ],
      "type": "VEC2"
    },
    {
      "bufferView": 0,
      "byteOffset": 383328,
      "componentType": 5125,
      "count": 2316,
      "type": "SCALAR"
    },
    {
      "bufferView": 2,
      "byteOffset": 538368,
      "componentType": 5126,
      "count": 624,
      "max": [
        12.920904159545898,
        20.066579818725586,
        13.253180503845215
      ],
      "min": [
        -12.920915603637695,
        -21.649534225463867,
        -13.253186225891113
      ],
      "type": "VEC3"
    },
    {
      "bufferView": 2,
      "byteOffset": 545856,
      "componentType": 5126,
      "count": 624,
      "max": [
        0.97492915391922,
        1.0,
        1.0
      ],
      "min": [
        -0.97492915391922,
        -1.0,
        -1.0
      ],
      "type": "VEC3"
    },
    {
      "bufferView": 3,
      "byteOffset": 358912,
      "componentType": 5126,
      "count": 624,
      "max": [
        0.9999930262565613,
        1.0,
        0.9888402223587036,
        1.0
      ],
      "min": [
        -0.9998739957809448,
        -1.0,
        -0.9894621968269348,
        1.0
      ],
      "type": "VEC4"
    },
    {
      "bufferView": 1,
      "byteOffset": 358912,
      "componentType": 5126,
      "count": 624,
      "max": [
        0.9951267242431641,
        0.9970213174819946
      ],
      "min": [
        0.002994183450937271,
        0.0030534863471984863
      ],
      "type": "VEC2"
    },
    {
      "bufferView": 1,
      "byteOffset": 363904,
      "componentType": 5126,
      "count": 624,
      "max": [
        0.9951267242431641,
        0.9970213174819946
      ],
      "min": [
        0.002994183450937271,
        0.0030534863471984863
      ],
      "type": "VEC2"
    },
    {
      "bufferView": 0,
      "byteOffset": 392592,
      "componentType": 5125,
      "count": 2316,
      "type": "SCALAR"
    },
    {
      "bufferView": 2,
      "byteOffset": 553344,
      "componentType": 5126,
      "count": 175,
      "max": [
        161.49954223632813,
        8.390839576721191,
        161.48606872558594
      ],
      "min": [
        -161.57855224609375,
        -9.010124206542969,
        -161.59202575683594
      ],
      "type": "VEC3"
    },
    {
      "bufferView": 2,
      "byteOffset": 555444,
      "componentType": 5126,
      "count": 175,
      "max": [
        1.0,
        1.0,
        1.0
      ],
      "min": [
        -1.0,
        -1.0,
        -1.0
      ],
      "type": "VEC3"
    },
    {
      "bufferView": 3,
      "byteOffset": 368896,
      "componentType": 5126,
      "count": 175,
      "max": [
        1.0,
        1.0,
        1.0,
        1.0
      ],
      "min": [
        -1.0,
        -1.0,
        -5.896923084947048e-06,
        1.0
      ],
      "type": "VEC4"
    },
    {
      "bufferView": 1,
      "byteOffset": 368896,
      "componentType": 5126,
      "count": 175,
      "max": [
        0.9975179433822632,
        0.9303103685379028
      ],
      "min": [
        0.0024817464873194695,
        0.002481797942891717
      ],
      "type": "VEC2"
    },
    {
      "bufferView": 1,
      "byteOffset": 370296,
      "componentType": 5126,
      "count": 175,
      "max": [
        0.9975179433822632,
        0.9303103685379028
      ],
      "min": [
        0.0024817464873194695,
        0.002481797942891717
      ],
      "type": "VEC2"
    },
    {
      "bufferView": 0,
      "byteOffset": 401856,
      "componentType": 5125,
      "count": 204,
      "type": "SCALAR"
    }
  ],
  "asset": {
    "extras": {
      "author": "Tomas Dvorak (https://sketchfab.com/Tomas_Dvorak)",
      "license": "SKETCHFAB Standard (https://sketchfab.com/licenses)",
      "source": "https://sketchfab.com/3d-models/chess-set-df8d1bd2836a42718c2212fbe93702fb",
      "title": "Chess Set"
    },
    "generator": "Sketchfab-16.59.0",
    "version": "2.0"
  },
  "bufferViews": [
    {
      "buffer": 0,
      "byteLength": 402672,
      "name": "floatBufferViews",
      "target": 34963
    },
    {
      "buffer": 0,
      "byteLength": 371696,
      "byteOffset": 402672,
      "byteStride": 8,
      "name": "floatBufferViews",
      "target": 34962
    },
    {
      "buffer": 0,
      "byteLength": 557544,
      "byteOffset": 774368,
      "byteStride": 12,
      "name": "floatBufferViews",
      "target": 34962
    },
    {
      "buffer": 0,
      "byteLength": 371696,
      "byteOffset": 1331912,
      "byteStride": 16,
      "name": "floatBufferViews",
      "target": 34962
    }
  ],
  "buffers": [
    {
      "byteLength": 1703608,
      "uri": "scene.bin"
    }
  ],
  "extensionsUsed": [
    "KHR_materials_specular"
  ],
  "images": [
    {
      "uri": "textures/Black_baseColor.png"
    },
    {
      "uri": "textures/Black_metallicRoughness.png"
    },
    {
      "uri": "textures/Black_normal.png"
    },
    {
      "uri": "textures/White_baseColor.png"
    },
    {
      "uri": "textures/White_metallicRoughness.png"
    },
    {
      "uri": "textures/White_normal.png"
    },
    {
      "uri": "textures/Board_baseColor.png"
    },
    {
      "uri": "textures/Board_metallicRoughness.png"
    },
    {
      "uri": "textures/Board_normal.png"
    }
  ],
  "materials": [
    {
      "doubleSided": true,
      "extensions": {
        "KHR_materials_specular": {
          "specularColorFactor": [
            1.0,
            1.0,
            1.0
          ],
          "specularFactor": 0.3
        }
      },
      "name": "Black",
      "normalTexture": {
        "index": 2
      },
      "occlusionTexture": {
        "index": 1,
        "strength": 0.5
      },
      "pbrMetallicRoughness": {
        "baseColorTexture": {
          "index": 0
        },
        "metallicRoughnessTexture": {
          "index": 1
        }
      }
    },
    {
      "doubleSided": true,
      "extensions": {
        "KHR_materials_specular": {
          "specularColorFactor": [
            1.0,
            1.0,
            1.0
          ],
          "specularFactor": 0.3
        }
      },
      "name": "White",
      "normalTexture": {
        "index": 5
      },
      "occlusionTexture": {
        "index": 4,
        "strength": 0.5
      },
      "pbrMetallicRoughness": {
        "baseColorTexture": {
          "index": 3
        },
        "metallicRoughnessTexture": {
          "index": 4
        }
      }
    },
    {
      "doubleSided": true,
      "extensions": {
        "KHR_materials_specular": {
          "specularColorFactor": [
            1.0,
            1.0,
            1.0
          ],
          "specularFactor": 0.3
        }
      },
      "name": "Board",
      "normalTexture": {
        "index": 8
      },
      "occlusionTexture": {
        "index": 7,
        "strength": 0.5
      },
      "pbrMetallicRoughness": {
        "baseColorTexture": {
          "index": 6
        },
        "metallicRoughnessTexture": {
          "index": 7
        }
      }
    }
  ],
  "meshes": [
    {
      "name": "king_black_low_Black_0",
      "primitives": [
        {
          "attributes": {
            "NORMAL": 1,
            "POSITION": 0,
            "TANGENT": 2,
            "TEXCOORD_0": 3,
            "TEXCOORD_1": 4
          },
          "indices": 5,
          "material": 0,
          "mode": 4
        }
      ]
    },
    {
      "name": "queen_black_low_Black_0",
      "primitives": [
        {
          "attributes": {
            "NORMAL": 7,
            "POSITION": 6,
            "TANGENT": 8,
            "TEXCOORD_0": 9,
            "TEXCOORD_1": 10
          },
          "indices": 11,
          "material": 0,
          "mode": 4
        }
      ]
    },
    {
      "name": "rook_black_low_Black_0",
      "primitives": [
        {
          "attributes": {
            "NORMAL": 13,
            "POSITION": 12,
            "TANGENT": 14,
            "TEXCOORD_0": 15,
            "TEXCOORD_1": 16
          },
          "indices": 17,
          "material": 0,
          "mode": 4
        }
      ]
    },
    {
      "name": "knight_black.001_low_Black_0",
      "primitives": [
        {
          "attributes": {
            "NORMAL": 19,
            "POSITION": 18,
            "TANGENT": 20,
            "TEXCOORD_0": 21,
            "TEXCOORD_1": 22
          },
          "indices": 23,
          "material": 0,
          "mode": 4
        }
      ]
    },
    {
      "name": "bishop_black_low_Black_0",
      "primitives": [
        {
          "attributes": {
            "NORMAL": 25,
            "POSITION": 24,
            "TANGENT": 26,
            "TEXCOORD_0": 27,
            "TEXCOORD_1": 28
          },
          "indices": 29,
          "material": 0,
          "mode": 4
        }
      ]
    },
    {
      "name": "pawn_black.007_low_Black_0",
      "primitives": [
        {
          "attributes": {
            "NORMAL": 31,
            "POSITION": 30,
            "TANGENT": 32,
            "TEXCOORD_0": 33,
            "TEXCOORD_1": 34
          },
          "indices": 35,
          "material": 0,
          "mode": 4
        }
      ]
    },
    {
      "name": "rook_black.001_low_Black_0",
      "primitives": [
        {
          "attributes": {
            "NORMAL": 37,
            "POSITION": 36,
            "TANGENT": 38,
            "TEXCOORD_0": 39,
            "TEXCOORD_1": 40
          },
          "indices": 41,
          "material": 0,
          "mode": 4
        }
      ]
    },
    {
      "name": "bishop_black.001_low_Black_0",
      "primitives": [
        {
          "attributes": {
            "NORMAL": 43,
            "POSITION": 42,
            "TANGENT": 44,
            "TEXCOORD_0": 45,
            "TEXCOORD_1": 46
          },
          "indices": 47,
          "material": 0,
          "mode": 4
        }
      ]
    },
    {
      "name": "knight_black_low_Black_0",
      "primitives": [
        {
          "attributes": {
            "NORMAL": 49,
            "POSITION": 48,
            "TANGENT": 50,
            "TEXCOORD_0": 51,
            "TEXCOORD_1": 52
          },
          "indices": 53,
          "material": 0,
          "mode": 4
        }
      ]
    },
    {
      "name": "pawn_black.006_low_Black_0",
      "primitives": [
        {
          "attributes": {
            "NORMAL": 55,
            "POSITION": 54,
            "TANGENT": 56,
            "TEXCOORD_0": 57,
            "TEXCOORD_1": 58
          },
          "indices": 59,
          "material": 0,
          "mode": 4
        }
      ]
    },
    {
      "name": "pawn_black.005_low_Black_0",
      "primitives": [
        {
          "attributes": {
            "NORMAL": 61,
            "POSITION": 60,
            "TANGENT": 62,
            "TEXCOORD_0": 63,
            "TEXCOORD_1": 64
          },
          "indices": 65,
          "material": 0,
          "mode": 4
        }
      ]
    },
    {
      "name": "pawn_black.004_low_Black_0",
      "primitives": [
        {
          "attributes": {
            "NORMAL": 67,
            "POSITION": 66,
            "TANGENT": 68,
            "TEXCOORD_0": 69,
            "TEXCOORD_1": 70
          },
          "indices": 71,
          "material": 0,
          "mode": 4
        }
      ]
    },
    {
      "name": "pawn_black.003_low_Black_0",
      "primitives": [
        {
          "attributes": {
            "NORMAL": 73,
            "POSITION": 72,
            "TANGENT": 74,
            "TEXCOORD_0": 75,
            "TEXCOORD_1": 76
          },
          "indices": 77,
          "material": 0,
          "mode": 4
        }
      ]
    },
    {
      "name": "pawn_black.002_low_Black_0",
      "primitives": [
        {
          "attributes": {
            "NORMAL": 79,
            "POSITION": 78,
            "TANGENT": 80,
            "TEXCOORD_0": 81,
            "TEXCOORD_1": 82
          },
          "indices": 83,
          "material": 0,
          "mode": 4
        }
      ]
    },
    {
      "name": "pawn_black.001_low_Black_0",
      "primitives": [
        {
          "attributes": {
            "NORMAL": 85,
            "POSITION": 84,
            "TANGENT": 86,
            "TEXCOORD_0": 87,
            "TEXCOORD_1": 88
          },
          "indices": 89,
          "material": 0,
          "mode": 4
        }
      ]
    },
    {
      "name": "pawn_black_low_Black_0",
      "primitives": [
        {
          "attributes": {
            "NORMAL": 91,
            "POSITION": 90,
            "TANGENT": 92,
            "TEXCOORD_0": 93,
            "TEXCOORD_1": 94
          },
          "indices": 95,
          "material": 0,
          "mode": 4
        }
      ]
    },
    {
      "name": "bishop_white_low_White_0",
      "primitives": [
        {
          "attributes": {
            "NORMAL": 97,
            "POSITION": 96,
            "TANGENT": 98,
            "TEXCOORD_0": 99,
            "TEXCOORD_1": 100
          },
          "indices": 101,
          "material": 1,
          "mode": 4
        }
      ]
    },
    {
      "name": "bishop_white.001_low_White_0",
      "primitives": [
        {
          "attributes": {
            "NORMAL": 103,
            "POSITION": 102,
            "TANGENT": 104,
            "TEXCOORD_0": 105,
            "TEXCOORD_1": 106
          },
          "indices": 107,
          "material": 1,
          "mode": 4
        }
      ]
    },
    {
      "name": "king_white_low_White_0",
      "primitives": [
        {
          "attributes": {
            "NORMAL": 109,
            "POSITION": 108,
            "TANGENT": 110,
            "TEXCOORD_0": 111,
            "TEXCOORD_1": 112
          },
          "indices": 113,
          "material": 1,
          "mode": 4
        }
      ]
    },
    {
      "name": "knight_white.001_low_White_0",
      "primitives": [
        {
          "attributes": {
            "NORMAL": 115,
            "POSITION": 114,
            "TANGENT": 116,
            "TEXCOORD_0": 117,
            "TEXCOORD_1": 118
          },
          "indices": 119,
          "material": 1,
          "mode": 4
        }
      ]
    },
    {
      "name": "knight_white_low_White_0",
      "primitives": [
        {
          "attributes": {
            "NORMAL": 121,
            "POSITION": 120,
            "TANGENT": 122,
            "TEXCOORD_0": 123,
            "TEXCOORD_1": 124
          },
          "indices": 125,
          "material": 1,
          "mode": 4
        }
      ]
    },
    {
      "name": "pawn_white.007_low_White_0",
      "primitives": [
        {
          "attributes": {
            "NORMAL": 127,
            "POSITION": 126,
            "TANGENT": 128,
            "TEXCOORD_0": 129,
            "TEXCOORD_1": 130
          },
          "indices": 131,
          "material": 1,
          "mode": 4
        }
      ]
    },
    {
      "name": "pawn_white.006_low_White_0",
      "primitives": [
        {
          "attributes": {
            "NORMAL": 133,
            "POSITION": 132,
            "TANGENT": 134,
            "TEXCOORD_0": 135,
            "TEXCOORD_1": 136
          },
          "indices": 137,
          "material": 1,
          "mode": 4
        }
      ]
    },
    {
      "name": "pawn_white.005_low_White_0",
      "primitives": [
        {
          "attributes": {
            "NORMAL": 139,
            "POSITION": 138,
            "TANGENT": 140,
            "TEXCOORD_0": 141,
            "TEXCOORD_1": 142
          },
          "indices": 143,
          "material": 1,
          "mode": 4
        }
      ]
    },
    {
      "name": "pawn_white.004_low_White_0",
      "primitives": [
        {
          "attributes": {
            "NORMAL": 145,
            "POSITION": 144,
            "TANGENT": 146,
            "TEXCOORD_0": 147,
            "TEXCOORD_1": 148
          },
          "indices": 149,
          "material": 1,
          "mode": 4
        }
      ]
    },
    {
      "name": "pawn_white.003_low_White_0",
      "primitives": [
        {
          "attributes": {
            "NORMAL": 151,
            "POSITION": 150,
            "TANGENT": 152,
            "TEXCOORD_0": 153,
            "TEXCOORD_1": 154
          },
          "indices": 155,
          "material": 1,
          "mode": 4
        }
      ]
    },
    {
      "name": "pawn_white.002_low_White_0",
      "primitives": [
        {
          "attributes": {
            "NORMAL": 157,
            "POSITION": 156,
            "TANGENT": 158,
            "TEXCOORD_0": 159,
            "TEXCOORD_1": 160
          },
          "indices": 161,
          "material": 1,
          "mode": 4
        }
      ]
    },
    {
      "name": "pawn_white.001_low_White_0",
      "primitives": [
        {
          "attributes": {
            "NORMAL": 163,
            "POSITION": 162,
            "TANGENT": 164,
            "TEXCOORD_0": 165,
            "TEXCOORD_1": 166
          },
          "indices": 167,
          "material": 1,
          "mode": 4
        }
      ]
    },
    {
      "name": "pawn_white_low_White_0",
      "primitives": [
        {
          "attributes": {
            "NORMAL": 169,
            "POSITION": 168,
            "TANGENT": 170,
            "TEXCOORD_0": 171,
            "TEXCOORD_1": 172
          },
          "indices": 173,
          "material": 1,
          "mode": 4
        }
      ]
    },
    {
      "name": "queen_white_low_White_0",
      "primitives": [
        {
          "attributes": {
            "NORMAL": 175,
            "POSITION": 174,
            "TANGENT": 176,
            "TEXCOORD_0": 177,
            "TEXCOORD_1": 178
          },
          "indices": 179,
          "material": 1,
          "mode": 4
        }
      ]
    },
    {
      "name": "rook_white_low_White_0",
      "primitives": [
        {
          "attributes": {
            "NORMAL": 181,
            "POSITION": 180,
            "TANGENT": 182,
            "TEXCOORD_0": 183,
            "TEXCOORD_1": 184
          },
          "indices": 185,
          "material": 1,
          "mode": 4
        }
      ]
    },
    {
      "name": "rook_white.001_low_White_0",
      "primitives": [
        {
          "attributes": {
            "NORMAL": 187,
            "POSITION": 186,
            "TANGENT": 188,
            "TEXCOORD_0": 189,
            "TEXCOORD_1": 190
          },
          "indices": 191,
          "material": 1,
          "mode": 4
        }
      ]
    },
    {
      "name": "board_low_Board_0",
      "primitives": [
        {
          "attributes": {
            "NORMAL": 193,
            "POSITION": 192,
            "TANGENT": 194,
            "TEXCOORD_0": 195,
            "TEXCOORD_1": 196
          },
          "indices": 197,
          "material": 2,
          "mode": 4
        }
      ]
    }
  ],
  "nodes": [
    {
      "children": [
        1
      ],
      "matrix": [
        1.0,
        0.0,
        0.0,
        0.0,
        0.0,
        2.220446049250313e-16,
        -1.0,
        0.0,
        0.0,
        1.0,
        2.220446049250313e-16,
        0.0,
        0.0,
        0.0,
        0.0,
        1.0
      ],
      "name": "Sketchfab_model"
    },
    {
      "children": [
        2
      ],
      "matrix": [
        0.009999999776482582,
        0.0,
        0.0,
        0.0,
        0.0,
        0.0,
        0.009999999776482582,
        0.0,
        0.0,
        -0.009999999776482582,
        0.0,
        0.0,
        0.0,
        0.0,
        0.0,
        1.0
      ],
      "name": "57493b41a3184bb48402285ece0f9170.fbx"
    },
    {
      "children": [
        3,
        5,
        7,
        9,
        11,
        13,
        15,
        17,
        19,
        21,
        23,
        25,
        27,
        29,
        31,
        33,
        35,
        37,
        39,
        41,
        43,
        45,
        47,
        49,
        51,
        53,
        55,
        57,
        59,
        61,
        63,
        65,
        67
      ],
      "name": "RootNode"
    },
    {
      "children": [
        4
      ],
      "matrix": [
        1.0,
        0.0,
        0.0,
        0.0,
        0.0,
        1.0,
        0.0,
        0.0,
        0.0,
        0.0,
        1.0,
        0.0,
        10.35354232788086,
        47.435218811035156,
        -129.99679565429688,
        1.0
      ],
      "name": "king_black_low"
    },
    {
      "mesh": 0,
      "name": "king_black_low_Black_0"
    },
    {
      "children": [
        6
      ],
      "matrix": [
        1.0,
        0.0,
        0.0,
        0.0,
        0.0,
        1.0,
        0.0,
        0.0,
        0.0,
        0.0,
        1.0,
        0.0,
        -24.458370208740234,
        50.49221420288086,
        -129.99679565429688,
        1.0
      ],
      "name": "queen_black_low"
    },
    {
      "mesh": 1,
      "name": "queen_black_low_Black_0"
    },
    {
      "children": [
        8
      ],
      "matrix": [
        1.0,
        0.0,
        0.0,
        0.0,
        0.0,
        1.0,
        0.0,
        0.0,
        0.0,
        0.0,
        1.0,
        0.0,
        -128.89454650878906,
        35.845062255859375,
        -129.99679565429688,
        1.0
      ],
      "name": "rook_black_low"
    },
    {
      "mesh": 2,
      "name": "rook_black_low_Black_0"
    },
    {
      "children": [
        10
      ],
      "matrix": [
        1.0,
        0.0,
        0.0,
        0.0,
        0.0,
        1.0,
        0.0,
        0.0,
        0.0,
        0.0,
        1.0,
        0.0,
        -94.0825424194336,
        39.29423522949219,
        -129.40628051757813,
        1.0
      ],
      "name": "knight_black.001_low"
    },
    {
      "mesh": 3,
      "name": "knight_black.001_low_Black_0"
    },
    {
      "children": [
        12
      ],
      "matrix": [
        1.0,
        0.0,
        0.0,
        0.0,
        0.0,
        1.0,
        0.0,
        0.0,
        0.0,
        0.0,
        1.0,
        0.0,
        -59.2043342590332,
        38.83743667602539,
        -130.00289916992188,
        1.0
      ],
      "name": "bishop_black_low"
    },
    {
      "mesh": 4,
      "name": "bishop_black_low_Black_0"
    },
    {
      "children": [
        14
      ],
      "matrix": [
        0.8704805599370353,
        0.0,
        0.4922026773214662,
        0.0,
        0.0,
        1.0,
        0.0,
        0.0,
        -0.4922026773214662,
        0.0,
        0.8704805599370353,
        0.0,
        -128.89439392089844,
        32.469085693359375,
        -95.18859100341797,
        1.0
      ],
      "name": "pawn_black.007_low"
    },
    {
      "mesh": 5,
      "name": "pawn_black.007_low_Black_0"
    },
    {
      "children": [
        16
      ],
      "matrix": [
        1.0,
        0.0,
        0.0,
        0.0,
        0.0,
        1.0,
        0.0,
        0.0,
        0.0,
        0.0,
        1.0,
        0.0,
        114.78961944580078,
        35.845062255859375,
        -129.99679565429688,
        1.0
      ],
      "name": "rook_black.001_low"
    },
    {
      "mesh": 6,
      "name": "rook_black.001_low_Black_0"
    },
    {
      "children": [
        18
      ],
      "matrix": [
        1.0,
        0.0,
        0.0,
        0.0,
        0.0,
        1.0,
        0.0,
        0.0,
        0.0,
        0.0,
        1.0,
        0.0,
        45.232025146484375,
        38.83743667602539,
        -130.00289916992188,
        1.0
      ],
      "name": "bishop_black.001_low"
    },
    {
      "mesh": 7,
      "name": "bishop_black.001_low_Black_0"
    },
    {
      "children": [
        20
      ],
      "matrix": [
        1.0,
        0.0,
        0.0,
        0.0,
        0.0,
        1.0,
        0.0,
        0.0,
        0.0,
        0.0,
        1.0,
        0.0,
        79.97801971435547,
        39.29423522949219,
        -129.40628051757813,
        1.0
      ],
      "name": "knight_black_low"
    },
    {
      "mesh": 8,
      "name": "knight_black_low_Black_0"
    },
    {
      "children": [
        22
      ],
      "matrix": [
        0.9011006494772027,
        0.0,
        0.43360971056146635,
        0.0,
        0.0,
        1.0,
        0.0,
        0.0,
        -0.43360971056146635,
        0.0,
        0.9011006494772027,
        0.0,
        -94.07946014404297,
        32.469085693359375,
        -95.18701171875,
        1.0
      ],
      "name": "pawn_black.006_low"
    },
    {
      "mesh": 9,
      "name": "pawn_black.006_low_Black_0"
    },
    {
      "children": [
        24
      ],
      "matrix": [
        0.8704805599370353,
        0.0,
        0.4922026773214662,
        0.0,
        0.0,
        1.0,
        0.0,
        0.0,
        -0.4922026773214662,
        0.0,
        0.8704805599370353,
        0.0,
        -59.2700309753418,
        32.469085693359375,
        -95.18859100341797,
        1.0
      ],
      "name": "pawn_black.005_low"
    },
    {
      "mesh": 10,
      "name": "pawn_black.005_low_Black_0"
    },
    {
      "children": [
        26
      ],
      "matrix": [
        0.9011006494772027,
        0.0,
        0.43360971056146635,
        0.0,
        0.0,
        1.0,
        0.0,
        0.0,
        -0.43360971056146635,
        0.0,
        0.9011006494772027,
        0.0,
        -24.455087661743164,
        32.469085693359375,
        -95.18701171875,
        1.0
      ],
      "name": "pawn_black.004_low"
    },
    {
      "mesh": 11,
      "name": "pawn_black.004_low_Black_0"
    },
    {
      "children": [
        28
      ],
      "matrix": [
        0.8704805599370353,
        0.0,
        0.4922026773214662,
        0.0,
        0.0,
        1.0,
        0.0,
        0.0,
        -0.4922026773214662,
        0.0,
        0.8704805599370353,
        0.0,
        10.353779792785645,
        32.469085693359375,
        -95.18859100341797,
        1.0
      ],
      "name": "pawn_black.003_low"
    },
    {
      "mesh": 12,
      "name": "pawn_black.003_low_Black_0"
    },
    {
      "children": [
        30
      ],
      "matrix": [
        0.9011006494772027,
        0.0,
        0.43360971056146635,
        0.0,
        0.0,
        1.0,
        0.0,
        0.0,
        -0.43360971056146635,
        0.0,
        0.9011006494772027,
        0.0,
        45.16872024536133,
        32.469085693359375,
        -95.18701171875,
        1.0
      ],
      "name": "pawn_black.002_low"
    },
    {
      "mesh": 13,
      "name": "pawn_black.002_low_Black_0"
    },
    {
      "children": [
        32
      ],
      "matrix": [
        0.8704805599370353,
        0.0,
        0.4922026773214662,
        0.0,
        0.0,
        1.0,
        0.0,
        0.0,
        -0.4922026773214662,
        0.0,
        0.8704805599370353,
        0.0,
        79.9781494140625,
        32.469085693359375,
        -95.18859100341797,
        1.0
      ],
      "name": "pawn_black.001_low"
    },
    {
      "mesh": 14,
      "name": "pawn_black.001_low_Black_0"
    },
    {
      "children": [
        34
      ],
      "matrix": [
        0.9011006494772027,
        0.0,
        0.43360971056146635,
        0.0,
        0.0,
        1.0,
        0.0,
        0.0,
        -0.43360971056146635,
        0.0,
        0.9011006494772027,
        0.0,
        114.79310607910156,
        32.469085693359375,
        -95.18701171875,
        1.0
      ],
      "name": "pawn_black_low"
    },
    {
      "mesh": 15,
      "name": "pawn_black_low_Black_0"
    },
    {
      "children": [
        36
      ],
      "matrix": [
        0.9999999999997876,
        0.0,
        -6.516826829283211e-07,
        0.0,
        0.0,
        1.0,
        0.0,
        0.0,
        6.516826829283211e-07,
        0.0,
        0.9999999999997876,
        0.0,
        44.99924087524414,
        38.83743667602539,
        113.66725158691406,
        1.0
      ],
      "name": "bishop_white_low"
    },
    {
      "mesh": 16,
      "name": "bishop_white_low_White_0"
    },
    {
      "children": [
        38
      ],
      "matrix": [
        0.9999999999997876,
        0.0,
        -6.516826829283211e-07,
        0.0,
        0.0,
        1.0,
        0.0,
        0.0,
        6.516826829283211e-07,
        0.0,
        0.9999999999997876,
        0.0,
        -59.33310317993164,
        38.83743667602539,
        113.66725158691406,
        1.0
      ],
      "name": "bishop_white.001_low"
    },
    {
      "mesh": 17,
      "name": "bishop_white.001_low_White_0"
    },
    {
      "children": [
        40
      ],
      "matrix": [
        0.9999999999997876,
        0.0,
        -6.516826829283211e-07,
        0.0,
        0.0,
        1.0,
        0.0,
        0.0,
        6.516826829283211e-07,
        0.0,
        0.9999999999997876,
        0.0,
        10.357293128967285,
        47.435218811035156,
        113.5427017211914,
        1.0
      ],
      "name": "king_white_low"
    },
    {
      "mesh": 18,
      "name": "king_white_low_White_0"
    },
    {
      "children": [
        42
      ],
      "matrix": [
        -0.9999999999999245,
        1.2246467991472608e-16,
        3.8941437775530117e-07,
        0.0,
        1.224647276042425e-16,
        1.0,
        1.2246467991472608e-16,
        0.0,
        -3.8941437775530117e-07,
        1.224647276042425e-16,
        -0.9999999999999245,
        0.0,
        79.98146057128906,
        39.29423522949219,
        113.07061004638672,
        1.0
      ],
      "name": "knight_white.001_low"
    },
    {
      "mesh": 19,
      "name": "knight_white.001_low_White_0"
    },
    {
      "children": [
        44
      ],
      "matrix": [
        -0.9999999999999245,
        1.2246467991472608e-16,
        3.8941437775530117e-07,
        0.0,
        1.224647276042425e-16,
        1.0,
        1.2246467991472608e-16,
        0.0,
        -3.8941437775530117e-07,
        1.224647276042425e-16,
        -0.9999999999999245,
        0.0,
        -94.0791015625,
        39.29423522949219,
        113.07063293457031,
        1.0
      ],
      "name": "knight_white_low"
    },
    {
      "mesh": 20,
      "name": "knight_white_low_White_0"
    },
    {
      "children": [
        46
      ],
      "matrix": [
        -0.8704806548514488,
        1.0660313476835187e-16,
        -0.4922026305591969,
        0.0,
        6.218724231011257e-17,
        1.0,
        1.0660313476835187e-16,
        0.0,
        0.4922026305591969,
        6.218724231011257e-17,
        -0.8704806548514488,
        0.0,
        114.79332733154297,
        32.469085693359375,
        78.85292053222656,
        1.0
      ],
      "name": "pawn_white.007_low"
    },
    {
      "mesh": 21,
      "name": "pawn_white.007_low_White_0"
    },
    {
      "children": [
        48
      ],
      "matrix": [
        -0.9011007281717832,
        1.1035301224649238e-16,
        -0.43360968448478676,
        0.0,
        6.936280553125821e-17,
        1.0,
        1.1035301882404488e-16,
        0.0,
        0.43360968448478676,
        6.936280139691284e-17,
        -0.9011007281717832,
        0.0,
        79.97837829589844,
        32.469085693359375,
        78.85133361816406,
        1.0
      ],
      "name": "pawn_white.006_low"
    },
    {
      "mesh": 22,
      "name": "pawn_white.006_low_White_0"
    },
    {
      "children": [
        50
      ],
      "matrix": [
        -0.8704806548514488,
        1.0660313476835187e-16,
        -0.4922026305591969,
        0.0,
        6.218724231011257e-17,
        1.0,
        1.0660313476835187e-16,
        0.0,
        0.4922026305591969,
        6.218724231011257e-17,
        -0.8704806548514488,
        0.0,
        45.168949127197266,
        32.469085693359375,
        78.85292053222656,
        1.0
      ],
      "name": "pawn_white.005_low"
    },
    {
      "mesh": 23,
      "name": "pawn_white.005_low_White_0"
    },
    {
      "children": [
        52
      ],
      "matrix": [
        -0.9011007281717832,
        1.1035301224649238e-16,
        -0.43360968448478676,
        0.0,
        6.936280553125821e-17,
        1.0,
        1.1035301882404488e-16,
        0.0,
        0.43360968448478676,
        6.936280139691284e-17,
        -0.9011007281717832,
        0.0,
        10.354005813598633,
        32.469085693359375,
        78.85134887695313,
        1.0
      ],
      "name": "pawn_white.004_low"
    },
    {
      "mesh": 24,
      "name": "pawn_white.004_low_White_0"
    },
    {
      "children": [
        54
      ],
      "matrix": [
        -0.8704806548514488,
        1.0660313476835187e-16,
        -0.4922026305591969,
        0.0,
        6.218724231011257e-17,
        1.0,
        1.0660313476835187e-16,
        0.0,
        0.4922026305591969,
        6.218724231011257e-17,
        -0.8704806548514488,
        0.0,
        -24.454862594604492,
        32.469085693359375,
        78.85293579101563,
        1.0
      ],
      "name": "pawn_white.003_low"
    },
    {
      "mesh": 25,
      "name": "pawn_white.003_low_White_0"
    },
    {
      "children": [
        56
      ],
      "matrix": [
        -0.9011007281717832,
        1.1035301224649238e-16,
        -0.43360968448478676,
        0.0,
        6.936280553125821e-17,
        1.0,
        1.1035301882404488e-16,
        0.0,
        0.43360968448478676,
        6.936280139691284e-17,
        -0.9011007281717832,
        0.0,
        -59.26980209350586,
        32.469085693359375,
        78.85134887695313,
        1.0
      ],
      "name": "pawn_white.002_low"
    },
    {
      "mesh": 26,
      "name": "pawn_white.002_low_White_0"
    },
    {
      "children": [
        58
      ],
      "matrix": [
        -0.8704806548514488,
        1.0660313476835187e-16,
        -0.4922026305591969,
        0.0,
        6.218724231011257e-17,
        1.0,
        1.0660313476835187e-16,
        0.0,
        0.4922026305591969,
        6.218724231011257e-17,
        -0.8704806548514488,
        0.0,
        -94.07923126220703,
        32.469085693359375,
        78.85293579101563,
        1.0
      ],
      "name": "pawn_white.001_low"
    },
    {
      "mesh": 27,
      "name": "pawn_white.001_low_White_0"
    },
    {
      "children": [
        60
      ],
      "matrix": [
        -0.9011007281717832,
        1.1035301224649238e-16,
        -0.43360968448478676,
        0.0,
        6.936280553125821e-17,
        1.0,
        1.1035301882404488e-16,
        0.0,
        0.43360968448478676,
        6.936280139691284e-17,
        -0.9011007281717832,
        0.0,
        -128.89418029785156,
        32.469085693359375,
        78.85135650634766,
        1.0
      ],
      "name": "pawn_white_low"
    },
    {
      "mesh": 28,
      "name": "pawn_white_low_White_0"
    },
    {
      "children": [
        62
      ],
      "matrix": [
        0.9999999999997876,
        0.0,
        -6.516826829283211e-07,
        0.0,
        0.0,
        1.0,
        0.0,
        0.0,
        6.516826829283211e-07,
        0.0,
        0.9999999999997876,
        0.0,
        -24.454620361328125,
        50.49221420288086,
        113.78150939941406,
        1.0
      ],
      "name": "queen_white_low"
    },
    {
      "mesh": 29,
      "name": "queen_white_low_White_0"
    },
    {
      "children": [
        64
      ],
      "matrix": [
        -0.9999999999999245,
        1.2246467991472608e-16,
        3.8941437775530117e-07,
        0.0,
        1.224647276042425e-16,
        1.0,
        1.2246467991472608e-16,
        0.0,
        -3.8941437775530117e-07,
        1.224647276042425e-16,
        -0.9999999999999245,
        0.0,
        114.79346466064453,
        35.845062255859375,
        113.66112518310547,
        1.0
      ],
      "name": "rook_white_low"
    },
    {
      "mesh": 30,
      "name": "rook_white_low_White_0"
    },
    {
      "children": [
        66
      ],
      "matrix": [
        -0.9999999999999245,
        1.2246467991472608e-16,
        3.8941437775530117e-07,
        0.0,
        1.224647276042425e-16,
        1.0,
        1.2246467991472608e-16,
        0.0,
        -3.8941437775530117e-07,
        1.224647276042425e-16,
        -0.9999999999999245,
        0.0,
        -128.89068603515625,
        35.845062255859375,
        113.66114807128906,
        1.0
      ],
      "name": "rook_white.001_low"
    },
    {
      "mesh": 31,
      "name": "rook_white.001_low_White_0"
    },
    {
      "children": [
        68
      ],
      "matrix": [
        7.907536365703294e-07,
        0.0,
        -0.9999999999996875,
        0.0,
        0.0,
        1.0,
        0.0,
        0.0,
        0.9999999999996875,
        0.0,
        7.907536365703294e-07,
        0.0,
        -7.06458854675293,
        9.045755386352539,
        -8.159613609313965,
        1.0
      ],
      "name": "board_low"
    },
    {
      "mesh": 32,
      "name": "board_low_Board_0"
    }
  ],
  "samplers": [
    {
      "magFilter": 9729,
      "minFilter": 9987,
      "wrapS": 10497,
      "wrapT": 10497
    }
  ],
  "scene": 0,
  "scenes": [
    {
      "name": "Sketchfab_Scene",
      "nodes": [
        0
      ]
    }
  ],
  "textures": [
    {
      "sampler": 0,
      "source": 0
    },
    {
      "sampler": 0,
      "source": 1
    },
    {
      "sampler": 0,
      "source": 2
    },
    {
      "sampler": 0,
      "source": 3
    },
    {
      "sampler": 0,
      "source": 4
    },
    {
      "sampler": 0,
      "source": 5
    },
    {
      "sampler": 0,
      "source": 6
    },
    {
      "sampler": 0,
      "source": 7
    },
    {
      "sampler": 0,
      "source": 8
    }
  ]
}
